<svg xmlns="http://www.w3.org/2000/svg" width="360" height="336" preserveAspectRatio="xMidYMid meet">
          <iframe id="bg" x="0" y="0" style="fill: #1e2126" width="360" height="336"/>
          <g id="main">
            <g id="polygons"><path d=" M 122 288 L 107 264  75 298  77 214  97 237  115 209  113 238  147 240  L 122 288  Z" stroke="rgba(92,82,88,.2)" stroke-width="2px" fill="rgba(92,82,88,.2)"/><path d=" M 328 290 L 298 311  314 288  299 277  308 271  311 252  324 237  339 231  L 328 290  Z" stroke="rgba(188,190,98,.2)" stroke-width="2px" fill="rgba(188,190,98,.2)"/><path d=" M 173 318 L 169 271  159 283  139 271  147 240  170 206  201 215  187 243  L 173 318  Z" stroke="rgba(238,125,172,.2)" stroke-width="2px" fill="rgba(238,125,172,.2)"/><path d=" M 177 153 L 155 169  128 165  113 151  119 113  75 97  165 64  144 98  L 177 153  Z" stroke="rgba(254,204,113,.2)" stroke-width="2px" fill="rgba(254,204,113,.2)"/><path d=" M 173 318 L 159 283  169 271  175 259  222 261  204 311  228 305  272 318  L 173 318  Z" stroke="rgba(144,138,88,.2)" stroke-width="2px" fill="rgba(144,138,88,.2)"/><path d=" M 220 195 L 216 206  183 179  182 175  177 153  207 158  209 138  240 162  L 220 195  Z" stroke="rgba(97,222,181,.2)" stroke-width="2px" fill="rgba(97,222,181,.2)"/><path d=" M 115 209 L 86 197  113 185  108 180  89 171  113 151  128 165  155 169  L 115 209  Z" stroke="rgba(64,102,194,.2)" stroke-width="2px" fill="rgba(64,102,194,.2)"/><path d=" M 133 33 L 141 40  88 47  78 45  73 24  62 17  64 15  97 17  L 133 33  Z" stroke="rgba(156,232,164,.2)" stroke-width="2px" fill="rgba(156,232,164,.2)"/><path d=" M 258 265 L 222 261  236 248  230 234  226 220  249 240  280 226  287 245  L 258 265  Z" stroke="rgba(208,134,100,.2)" stroke-width="2px" fill="rgba(208,134,100,.2)"/><path d=" M 220 163 L 183 179  182 175  158 194  155 169  128 165  148 127  209 138  L 220 163  Z" stroke="rgba(234,98,79,.2)" stroke-width="2px" fill="rgba(234,98,79,.2)"/><path d=" M 12 283 L 65 291  75 298  75 303  72 308  86 310  112 310  90 323  L 12 283  Z" stroke="rgba(184,159,143,.2)" stroke-width="2px" fill="rgba(184,159,143,.2)"/><path d=" M 334 95 L 300 98  293 78  279 90  261 52  297 49  317 14  332 53  L 334 95  Z" stroke="rgba(174,113,186,.2)" stroke-width="2px" fill="rgba(174,113,186,.2)"/><path d=" M 298 311 L 314 288  299 277  308 271  311 252  324 237  339 231  349 270  L 298 311  Z" stroke="rgba(113,154,192,.2)" stroke-width="2px" fill="rgba(113,154,192,.2)"/><path d=" M 173 318 L 159 283  169 271  175 259  204 311  222 261  228 305  272 318  L 173 318  Z" stroke="rgba(173,93,141,.2)" stroke-width="2px" fill="rgba(173,93,141,.2)"/><path d=" M 68 105 L 28 83  52 90  45 49  58 65  62 55  78 45  88 47  L 68 105  Z" stroke="rgba(71,146,239,.2)" stroke-width="2px" fill="rgba(71,146,239,.2)"/><path d=" M 218 48 L 222 62  211 63  210 63  174 64  165 64  141 40  133 33  L 218 48  Z" stroke="rgba(235,87,166,.2)" stroke-width="2px" fill="rgba(235,87,166,.2)"/><path d=" M 348 62 L 332 53  308 61  293 78  297 49  261 52  264 19  311 11  L 348 62  Z" stroke="rgba(95,66,107,.2)" stroke-width="2px" fill="rgba(95,66,107,.2)"/><path d=" M 53 208 L 44 220  40 230  15 207  13 206  11 176  14 152  52 151  L 53 208  Z" stroke="rgba(195,128,204,.2)" stroke-width="2px" fill="rgba(195,128,204,.2)"/><path d=" M 308 271 L 299 277  267 265  258 265  280 226  288 211  289 217  324 237  L 308 271  Z" stroke="rgba(110,196,170,.2)" stroke-width="2px" fill="rgba(110,196,170,.2)"/><path d=" M 113 238 L 109 254  97 237  77 214  86 197  108 180  113 185  129 179  L 113 238  Z" stroke="rgba(104,241,102,.2)" stroke-width="2px" fill="rgba(104,241,102,.2)"/><path d=" M 349 158 L 299 181  269 163  269 138  307 128  310 111  329 105  346 137  L 349 158  Z" stroke="rgba(156,202,137,.2)" stroke-width="2px" fill="rgba(156,202,137,.2)"/><path d=" M 158 194 L 129 179  115 209  113 185  108 180  89 171  113 151  148 127  L 158 194  Z" stroke="rgba(196,237,197,.2)" stroke-width="2px" fill="rgba(196,237,197,.2)"/><path d=" M 89 171 L 86 197  53 208  14 187  11 176  14 152  68 105  75 97  L 89 171  Z" stroke="rgba(150,98,57,.2)" stroke-width="2px" fill="rgba(150,98,57,.2)"/><path d=" M 201 215 L 170 206  158 194  155 169  182 175  177 153  207 158  220 163  L 201 215  Z" stroke="rgba(244,186,210,.2)" stroke-width="2px" fill="rgba(244,186,210,.2)"/><path d=" M 68 105 L 10 95  10 93  28 83  45 49  58 65  62 55  78 45  L 68 105  Z" stroke="rgba(206,64,146,.2)" stroke-width="2px" fill="rgba(206,64,146,.2)"/><path d=" M 53 208 L 44 220  40 230  14 187  15 207  13 206  14 152  52 151  L 53 208  Z" stroke="rgba(246,80,235,.2)" stroke-width="2px" fill="rgba(246,80,235,.2)"/><path d=" M 219 77 L 144 98  133 33  141 40  131 29  218 48  210 63  211 63  L 219 77  Z" stroke="rgba(110,76,68,.2)" stroke-width="2px" fill="rgba(110,76,68,.2)"/><path d=" M 209 138 L 217 96  210 63  211 63  219 77  218 48  222 62  241 95  L 209 138  Z" stroke="rgba(152,84,96,.2)" stroke-width="2px" fill="rgba(152,84,96,.2)"/><path d=" M 244 254 L 258 265  222 261  201 215  216 206  230 234  226 220  249 240  L 244 254  Z" stroke="rgba(79,142,241,.2)" stroke-width="2px" fill="rgba(79,142,241,.2)"/><path d=" M 144 98 L 165 64  141 40  133 33  218 48  222 62  210 63  211 63  L 144 98  Z" stroke="rgba(125,165,60,.2)" stroke-width="2px" fill="rgba(125,165,60,.2)"/><path d=" M 68 105 L 14 152  10 93  45 49  62 55  28 83  58 65  52 90  L 68 105  Z" stroke="rgba(62,156,99,.2)" stroke-width="2px" fill="rgba(62,156,99,.2)"/><path d=" M 338 149 L 313 147  307 128  310 111  300 98  293 78  348 62  334 95  L 338 149  Z" stroke="rgba(133,77,118,.2)" stroke-width="2px" fill="rgba(133,77,118,.2)"/><path d=" M 210 322 L 197 321  173 318  159 283  169 271  175 259  222 261  228 305  L 210 322  Z" stroke="rgba(129,167,242,.2)" stroke-width="2px" fill="rgba(129,167,242,.2)"/><path d=" M 230 234 L 201 215  170 206  183 179  182 175  220 163  220 195  238 182  L 230 234  Z" stroke="rgba(225,192,89,.2)" stroke-width="2px" fill="rgba(225,192,89,.2)"/><path d=" M 310 111 L 307 128  269 138  279 90  293 78  297 49  308 61  334 95  L 310 111  Z" stroke="rgba(76,248,115,.2)" stroke-width="2px" fill="rgba(76,248,115,.2)"/><path d=" M 334 95 L 329 105  293 78  308 61  297 49  311 11  313 11  317 14  L 334 95  Z" stroke="rgba(95,92,142,.2)" stroke-width="2px" fill="rgba(95,92,142,.2)"/><path d=" M 68 105 L 52 90  28 83  45 49  73 24  62 55  78 45  88 47  L 68 105  Z" stroke="rgba(126,96,195,.2)" stroke-width="2px" fill="rgba(126,96,195,.2)"/><path d=" M 97 237 L 77 214  44 220  53 208  89 171  108 180  113 185  129 179  L 97 237  Z" stroke="rgba(227,209,64,.2)" stroke-width="2px" fill="rgba(227,209,64,.2)"/><path d=" M 108 180 L 113 185  115 209  86 197  77 214  52 151  113 151  128 165  L 108 180  Z" stroke="rgba(187,109,243,.2)" stroke-width="2px" fill="rgba(187,109,243,.2)"/><path d=" M 52 151 L 10 95  10 93  28 83  52 90  58 65  62 55  75 97  L 52 151  Z" stroke="rgba(178,198,77,.2)" stroke-width="2px" fill="rgba(178,198,77,.2)"/><path d=" M 226 220 L 216 206  201 215  183 179  207 158  220 163  240 162  238 182  L 226 220  Z" stroke="rgba(104,158,170,.2)" stroke-width="2px" fill="rgba(104,158,170,.2)"/><path d=" M 115 209 L 113 185  129 179  128 165  155 169  177 153  182 175  183 179  L 115 209  Z" stroke="rgba(183,194,151,.2)" stroke-width="2px" fill="rgba(183,194,151,.2)"/><path d=" M 210 322 L 197 321  204 311  173 318  222 261  244 254  258 265  267 265  L 210 322  Z" stroke="rgba(144,194,123,.2)" stroke-width="2px" fill="rgba(144,194,123,.2)"/><path d=" M 219 77 L 220 103  217 96  174 64  211 25  218 48  253 54  222 62  L 219 77  Z" stroke="rgba(207,122,251,.2)" stroke-width="2px" fill="rgba(207,122,251,.2)"/><path d=" M 299 277 L 222 261  236 248  244 254  230 234  249 240  280 226  287 245  L 299 277  Z" stroke="rgba(229,173,131,.2)" stroke-width="2px" fill="rgba(229,173,131,.2)"/><path d=" M 324 237 L 311 252  287 245  280 226  249 240  288 211  293 191  299 181  L 324 237  Z" stroke="rgba(163,183,59,.2)" stroke-width="2px" fill="rgba(163,183,59,.2)"/><path d=" M 298 311 L 299 277  314 288  308 271  311 252  324 237  328 290  349 270  L 298 311  Z" stroke="rgba(161,160,108,.2)" stroke-width="2px" fill="rgba(161,160,108,.2)"/><path d=" M 217 96 L 219 77  211 63  210 63  211 25  218 48  253 54  261 52  L 217 96  Z" stroke="rgba(201,87,173,.2)" stroke-width="2px" fill="rgba(201,87,173,.2)"/><path d=" M 293 78 L 279 90  241 95  222 62  253 54  218 48  264 19  297 49  L 293 78  Z" stroke="rgba(210,196,193,.2)" stroke-width="2px" fill="rgba(210,196,193,.2)"/><path d=" M 15 207 L 14 187  13 206  11 176  10 95  10 93  28 83  52 151  L 15 207  Z" stroke="rgba(76,240,237,.2)" stroke-width="2px" fill="rgba(76,240,237,.2)"/><path d=" M 293 191 L 299 181  313 147  307 128  310 111  329 105  334 95  346 137  L 293 191  Z" stroke="rgba(133,198,246,.2)" stroke-width="2px" fill="rgba(133,198,246,.2)"/><path d=" M 238 182 L 216 206  220 195  220 163  207 158  209 138  260 143  269 138  L 238 182  Z" stroke="rgba(208,174,238,.2)" stroke-width="2px" fill="rgba(208,174,238,.2)"/><path d=" M 308 271 L 299 277  311 252  287 245  280 226  289 217  288 211  339 231  L 308 271  Z" stroke="rgba(149,113,146,.2)" stroke-width="2px" fill="rgba(149,113,146,.2)"/><path d=" M 220 103 L 217 96  174 64  210 63  211 25  218 48  253 54  222 62  L 220 103  Z" stroke="rgba(137,194,94,.2)" stroke-width="2px" fill="rgba(137,194,94,.2)"/><path d=" M 139 271 L 122 288  107 264  109 254  97 237  77 214  86 197  115 209  L 139 271  Z" stroke="rgba(108,120,180,.2)" stroke-width="2px" fill="rgba(108,120,180,.2)"/><path d=" M 299 181 L 313 147  307 128  338 149  310 111  329 105  334 95  346 137  L 299 181  Z" stroke="rgba(87,172,72,.2)" stroke-width="2px" fill="rgba(87,172,72,.2)"/><path d=" M 332 53 L 308 61  293 78  297 49  261 52  264 19  311 11  313 11  L 332 53  Z" stroke="rgba(198,145,240,.2)" stroke-width="2px" fill="rgba(198,145,240,.2)"/><path d=" M 338 149 L 313 147  307 128  279 90  300 98  293 78  334 95  329 105  L 338 149  Z" stroke="rgba(223,89,61,.2)" stroke-width="2px" fill="rgba(223,89,61,.2)"/><path d=" M 311 252 L 287 245  267 265  258 265  249 240  293 191  288 211  289 217  L 311 252  Z" stroke="rgba(204,231,138,.2)" stroke-width="2px" fill="rgba(204,231,138,.2)"/><path d=" M 329 105 L 307 128  310 111  300 98  293 78  308 61  332 53  348 62  L 329 105  Z" stroke="rgba(183,209,128,.2)" stroke-width="2px" fill="rgba(183,209,128,.2)"/><path d=" M 253 54 L 222 62  219 77  211 63  210 63  174 64  195 14  211 25  L 253 54  Z" stroke="rgba(149,67,248,.2)" stroke-width="2px" fill="rgba(149,67,248,.2)"/><path d=" M 201 215 L 183 179  170 206  158 194  155 169  177 153  207 158  220 163  L 201 215  Z" stroke="rgba(254,228,68,.2)" stroke-width="2px" fill="rgba(254,228,68,.2)"/><path d=" M 72 308 L 65 291  75 303  75 298  86 310  107 264  122 288  112 310  L 72 308  Z" stroke="rgba(159,150,195,.2)" stroke-width="2px" fill="rgba(159,150,195,.2)"/><path d=" M 269 163 L 240 162  260 143  241 95  279 90  300 98  310 111  307 128  L 269 163  Z" stroke="rgba(190,98,90,.2)" stroke-width="2px" fill="rgba(190,98,90,.2)"/><path d=" M 338 149 L 313 147  269 138  279 90  300 98  310 111  334 95  329 105  L 338 149  Z" stroke="rgba(90,83,233,.2)" stroke-width="2px" fill="rgba(90,83,233,.2)"/><path d=" M 62 55 L 45 49  78 45  62 17  64 15  73 24  97 17  99 24  L 62 55  Z" stroke="rgba(81,58,116,.2)" stroke-width="2px" fill="rgba(81,58,116,.2)"/><path d=" M 201 215 L 187 243  147 240  129 179  158 194  155 169  182 175  183 179  L 201 215  Z" stroke="rgba(172,217,85,.2)" stroke-width="2px" fill="rgba(172,217,85,.2)"/><path d=" M 133 33 L 141 40  99 24  88 47  78 45  73 24  62 17  64 15  L 133 33  Z" stroke="rgba(215,153,231,.2)" stroke-width="2px" fill="rgba(215,153,231,.2)"/><path d=" M 99 24 L 73 24  88 47  78 45  62 55  58 65  45 49  64 15  L 99 24  Z" stroke="rgba(221,240,158,.2)" stroke-width="2px" fill="rgba(221,240,158,.2)"/><path d=" M 68 105 L 14 152  10 95  45 49  62 55  58 65  28 83  52 90  L 68 105  Z" stroke="rgba(108,152,146,.2)" stroke-width="2px" fill="rgba(108,152,146,.2)"/><path d=" M 310 111 L 307 128  241 95  253 54  261 52  297 49  308 61  293 78  L 310 111  Z" stroke="rgba(231,207,93,.2)" stroke-width="2px" fill="rgba(231,207,93,.2)"/><path d=" M 141 40 L 165 64  88 47  78 45  73 24  99 24  97 17  131 29  L 141 40  Z" stroke="rgba(251,126,127,.2)" stroke-width="2px" fill="rgba(251,126,127,.2)"/><path d=" M 197 321 L 173 318  122 288  139 271  147 240  175 259  187 243  169 271  L 197 321  Z" stroke="rgba(251,200,60,.2)" stroke-width="2px" fill="rgba(251,200,60,.2)"/><path d=" M 88 47 L 78 45  62 55  58 65  45 49  62 17  64 15  97 17  L 88 47  Z" stroke="rgba(102,210,92,.2)" stroke-width="2px" fill="rgba(102,210,92,.2)"/><path d=" M 338 149 L 299 181  313 147  307 128  310 111  300 98  329 105  334 95  L 338 149  Z" stroke="rgba(62,124,116,.2)" stroke-width="2px" fill="rgba(62,124,116,.2)"/><path d=" M 77 214 L 44 220  15 207  40 230  11 270  11 176  14 152  14 187  L 77 214  Z" stroke="rgba(194,114,77,.2)" stroke-width="2px" fill="rgba(194,114,77,.2)"/><path d=" M 40 230 L 15 207  13 206  14 187  11 176  53 208  86 197  77 214  L 40 230  Z" stroke="rgba(235,111,118,.2)" stroke-width="2px" fill="rgba(235,111,118,.2)"/><path d=" M 115 209 L 86 197  89 171  108 180  113 151  128 165  155 169  129 179  L 115 209  Z" stroke="rgba(231,73,163,.2)" stroke-width="2px" fill="rgba(231,73,163,.2)"/><path d=" M 11 270 L 13 206  15 207  14 187  44 220  53 208  86 197  77 214  L 11 270  Z" stroke="rgba(184,121,208,.2)" stroke-width="2px" fill="rgba(184,121,208,.2)"/><path d=" M 308 61 L 293 78  253 54  261 52  264 19  311 11  313 11  317 14  L 308 61  Z" stroke="rgba(123,254,77,.2)" stroke-width="2px" fill="rgba(123,254,77,.2)"/><path d=" M 183 179 L 170 206  158 194  129 179  113 185  128 165  148 127  177 153  L 183 179  Z" stroke="rgba(179,94,224,.2)" stroke-width="2px" fill="rgba(179,94,224,.2)"/><path d=" M 244 254 L 236 248  230 234  222 261  201 215  216 206  220 195  238 182  L 244 254  Z" stroke="rgba(145,183,133,.2)" stroke-width="2px" fill="rgba(145,183,133,.2)"/><path d=" M 324 308 L 298 311  272 318  299 277  287 245  308 271  311 252  349 270  L 324 308  Z" stroke="rgba(221,83,137,.2)" stroke-width="2px" fill="rgba(221,83,137,.2)"/><path d=" M 209 138 L 174 64  210 63  211 63  218 48  219 77  222 62  241 95  L 209 138  Z" stroke="rgba(74,196,72,.2)" stroke-width="2px" fill="rgba(74,196,72,.2)"/><path d=" M 86 310 L 72 308  75 303  75 298  65 291  107 264  122 288  139 271  L 86 310  Z" stroke="rgba(80,147,215,.2)" stroke-width="2px" fill="rgba(80,147,215,.2)"/><path d=" M 173 318 L 159 283  122 288  139 271  147 240  175 259  187 243  222 261  L 173 318  Z" stroke="rgba(85,233,200,.2)" stroke-width="2px" fill="rgba(85,233,200,.2)"/><path d=" M 220 103 L 217 96  174 64  210 63  211 63  218 48  222 62  253 54  L 220 103  Z" stroke="rgba(64,242,187,.2)" stroke-width="2px" fill="rgba(64,242,187,.2)"/><path d=" M 258 265 L 267 265  299 277  311 252  308 271  314 288  328 290  324 308  L 258 265  Z" stroke="rgba(239,131,89,.2)" stroke-width="2px" fill="rgba(239,131,89,.2)"/><path d=" M 75 298 L 86 310  75 303  90 323  72 308  62 324  12 283  107 264  L 75 298  Z" stroke="rgba(142,66,62,.2)" stroke-width="2px" fill="rgba(142,66,62,.2)"/><path d=" M 216 206 L 201 215  220 195  207 158  220 163  240 162  260 143  269 163  L 216 206  Z" stroke="rgba(201,236,172,.2)" stroke-width="2px" fill="rgba(201,236,172,.2)"/><path d=" M 97 237 L 40 230  44 220  15 207  13 206  14 187  89 171  86 197  L 97 237  Z" stroke="rgba(147,69,236,.2)" stroke-width="2px" fill="rgba(147,69,236,.2)"/><path d=" M 86 310 L 90 323  75 303  72 308  62 324  65 291  107 264  122 288  L 86 310  Z" stroke="rgba(211,219,233,.2)" stroke-width="2px" fill="rgba(211,219,233,.2)"/><path d=" M 165 64 L 144 98  88 47  99 24  97 17  133 33  131 29  195 14  L 165 64  Z" stroke="rgba(211,212,93,.2)" stroke-width="2px" fill="rgba(211,212,93,.2)"/><path d=" M 219 77 L 222 62  211 63  210 63  218 48  264 19  261 52  297 49  L 219 77  Z" stroke="rgba(223,176,73,.2)" stroke-width="2px" fill="rgba(223,176,73,.2)"/><path d=" M 77 214 L 44 220  40 230  11 270  13 206  11 176  14 187  14 152  L 77 214  Z" stroke="rgba(230,176,150,.2)" stroke-width="2px" fill="rgba(230,176,150,.2)"/><path d=" M 122 288 L 112 310  75 298  65 291  97 237  109 254  113 238  147 240  L 122 288  Z" stroke="rgba(193,109,194,.2)" stroke-width="2px" fill="rgba(193,109,194,.2)"/><path d=" M 269 163 L 238 182  240 162  220 163  209 138  241 95  269 138  307 128  L 269 163  Z" stroke="rgba(130,127,91,.2)" stroke-width="2px" fill="rgba(130,127,91,.2)"/><path d=" M 115 209 L 77 214  86 197  89 171  113 151  128 165  155 169  129 179  L 115 209  Z" stroke="rgba(228,169,170,.2)" stroke-width="2px" fill="rgba(228,169,170,.2)"/><path d=" M 75 298 L 75 303  72 308  62 324  14 316  11 270  44 220  40 230  L 75 298  Z" stroke="rgba(178,200,90,.2)" stroke-width="2px" fill="rgba(178,200,90,.2)"/><path d=" M 148 127 L 113 151  132 116  119 113  133 33  141 40  165 64  174 64  L 148 127  Z" stroke="rgba(71,145,114,.2)" stroke-width="2px" fill="rgba(71,145,114,.2)"/><path d=" M 220 163 L 238 182  220 195  216 206  183 179  182 175  177 153  209 138  L 220 163  Z" stroke="rgba(231,166,197,.2)" stroke-width="2px" fill="rgba(231,166,197,.2)"/><path d=" M 267 265 L 258 265  244 254  222 261  236 248  230 234  226 220  280 226  L 267 265  Z" stroke="rgba(94,157,195,.2)" stroke-width="2px" fill="rgba(94,157,195,.2)"/><path d=" M 217 96 L 219 77  210 63  211 63  222 62  253 54  261 52  279 90  L 217 96  Z" stroke="rgba(149,191,68,.2)" stroke-width="2px" fill="rgba(149,191,68,.2)"/><path d=" M 86 310 L 90 323  62 324  65 291  75 298  75 303  107 264  122 288  L 86 310  Z" stroke="rgba(181,240,62,.2)" stroke-width="2px" fill="rgba(181,240,62,.2)"/><path d=" M 58 65 L 62 55  45 49  62 17  64 15  73 24  97 17  99 24  L 58 65  Z" stroke="rgba(124,182,84,.2)" stroke-width="2px" fill="rgba(124,182,84,.2)"/><path d=" M 148 127 L 155 169  128 165  113 151  89 171  68 105  75 97  144 98  L 148 127  Z" stroke="rgba(150,252,185,.2)" stroke-width="2px" fill="rgba(150,252,185,.2)"/><path d=" M 299 277 L 258 265  222 261  244 254  236 248  249 240  280 226  287 245  L 299 277  Z" stroke="rgba(154,71,224,.2)" stroke-width="2px" fill="rgba(154,71,224,.2)"/><path d=" M 258 265 L 244 254  236 248  222 261  201 215  216 206  226 220  220 195  L 258 265  Z" stroke="rgba(105,164,101,.2)" stroke-width="2px" fill="rgba(105,164,101,.2)"/><path d=" M 230 234 L 187 243  170 206  158 194  183 179  182 175  220 195  216 206  L 230 234  Z" stroke="rgba(85,131,115,.2)" stroke-width="2px" fill="rgba(85,131,115,.2)"/><path d=" M 197 321 L 122 288  139 271  159 283  169 271  175 259  228 305  204 311  L 197 321  Z" stroke="rgba(243,236,152,.2)" stroke-width="2px" fill="rgba(243,236,152,.2)"/><path d=" M 159 283 L 112 310  122 288  107 264  109 254  113 238  147 240  175 259  L 159 283  Z" stroke="rgba(59,209,76,.2)" stroke-width="2px" fill="rgba(59,209,76,.2)"/><path d=" M 258 265 L 228 305  187 243  226 220  230 234  236 248  249 240  244 254  L 258 265  Z" stroke="rgba(73,185,252,.2)" stroke-width="2px" fill="rgba(73,185,252,.2)"/><path d=" M 86 310 L 90 323  72 308  62 324  65 291  75 298  107 264  122 288  L 86 310  Z" stroke="rgba(107,98,182,.2)" stroke-width="2px" fill="rgba(107,98,182,.2)"/><path d=" M 169 271 L 175 259  147 240  170 206  201 215  216 206  226 220  230 234  L 169 271  Z" stroke="rgba(178,189,116,.2)" stroke-width="2px" fill="rgba(178,189,116,.2)"/><path d=" M 314 288 L 308 271  299 277  287 245  280 226  289 217  324 237  339 231  L 314 288  Z" stroke="rgba(85,103,205,.2)" stroke-width="2px" fill="rgba(85,103,205,.2)"/><path d=" M 314 288 L 324 308  298 311  258 265  267 265  287 245  311 252  308 271  L 314 288  Z" stroke="rgba(190,158,191,.2)" stroke-width="2px" fill="rgba(190,158,191,.2)"/><path d=" M 90 323 L 86 310  75 303  75 298  107 264  109 254  139 271  159 283  L 90 323  Z" stroke="rgba(221,214,227,.2)" stroke-width="2px" fill="rgba(221,214,227,.2)"/><path d=" M 287 245 L 289 217  288 211  280 226  238 182  269 163  313 147  299 181  L 287 245  Z" stroke="rgba(250,196,63,.2)" stroke-width="2px" fill="rgba(250,196,63,.2)"/><path d=" M 52 90 L 58 65  45 49  62 17  64 15  73 24  78 45  88 47  L 52 90  Z" stroke="rgba(77,249,207,.2)" stroke-width="2px" fill="rgba(77,249,207,.2)"/><path d=" M 165 64 L 141 40  133 33  88 47  78 45  73 24  99 24  97 17  L 165 64  Z" stroke="rgba(226,174,180,.2)" stroke-width="2px" fill="rgba(226,174,180,.2)"/><path d=" M 328 290 L 308 271  311 252  324 237  287 245  280 226  289 217  288 211  L 328 290  Z" stroke="rgba(238,248,173,.2)" stroke-width="2px" fill="rgba(238,248,173,.2)"/><path d=" M 288 211 L 280 226  293 191  269 163  269 138  307 128  313 147  338 149  L 288 211  Z" stroke="rgba(106,75,143,.2)" stroke-width="2px" fill="rgba(106,75,143,.2)"/><path d=" M 228 305 L 258 265  267 265  299 277  308 271  314 288  298 311  324 308  L 228 305  Z" stroke="rgba(76,209,197,.2)" stroke-width="2px" fill="rgba(76,209,197,.2)"/><path d=" M 329 105 L 310 111  300 98  279 90  261 52  297 49  308 61  332 53  L 329 105  Z" stroke="rgba(191,181,98,.2)" stroke-width="2px" fill="rgba(191,181,98,.2)"/><path d=" M 317 14 L 348 62  332 53  308 61  293 78  297 49  261 52  264 19  L 317 14  Z" stroke="rgba(178,231,169,.2)" stroke-width="2px" fill="rgba(178,231,169,.2)"/><path d=" M 218 48 L 222 62  219 77  211 63  210 63  174 64  195 14  264 19  L 218 48  Z" stroke="rgba(216,183,230,.2)" stroke-width="2px" fill="rgba(216,183,230,.2)"/><path d=" M 113 238 L 139 271  109 254  107 264  53 208  77 214  86 197  115 209  L 113 238  Z" stroke="rgba(131,157,81,.2)" stroke-width="2px" fill="rgba(131,157,81,.2)"/><path d=" M 99 24 L 73 24  88 47  78 45  62 55  58 65  45 49  62 17  L 99 24  Z" stroke="rgba(78,63,195,.2)" stroke-width="2px" fill="rgba(78,63,195,.2)"/><path d=" M 329 105 L 300 98  293 78  308 61  297 49  332 53  313 11  317 14  L 329 105  Z" stroke="rgba(68,87,122,.2)" stroke-width="2px" fill="rgba(68,87,122,.2)"/><path d=" M 58 65 L 52 90  28 83  62 17  64 15  73 24  78 45  88 47  L 58 65  Z" stroke="rgba(143,188,232,.2)" stroke-width="2px" fill="rgba(143,188,232,.2)"/><path d=" M 175 259 L 169 271  159 283  139 271  109 254  113 238  115 209  170 206  L 175 259  Z" stroke="rgba(97,252,79,.2)" stroke-width="2px" fill="rgba(97,252,79,.2)"/><path d=" M 62 324 L 11 270  12 283  65 291  75 298  75 303  72 308  86 310  L 62 324  Z" stroke="rgba(138,149,55,.2)" stroke-width="2px" fill="rgba(138,149,55,.2)"/><path d=" M 293 191 L 288 211  238 182  220 163  240 162  260 143  269 138  313 147  L 293 191  Z" stroke="rgba(213,81,197,.2)" stroke-width="2px" fill="rgba(213,81,197,.2)"/><path d=" M 97 237 L 40 230  44 220  53 208  89 171  86 197  108 180  115 209  L 97 237  Z" stroke="rgba(193,219,209,.2)" stroke-width="2px" fill="rgba(193,219,209,.2)"/><path d=" M 75 298 L 72 308  12 283  14 316  13 206  15 207  44 220  40 230  L 75 298  Z" stroke="rgba(242,187,103,.2)" stroke-width="2px" fill="rgba(242,187,103,.2)"/><path d=" M 182 175 L 155 169  129 179  128 165  113 151  119 113  132 116  144 98  L 182 175  Z" stroke="rgba(197,80,81,.2)" stroke-width="2px" fill="rgba(197,80,81,.2)"/><path d=" M 75 97 L 68 105  10 95  10 93  45 49  62 55  78 45  58 65  L 75 97  Z" stroke="rgba(74,134,171,.2)" stroke-width="2px" fill="rgba(74,134,171,.2)"/><path d=" M 324 308 L 314 288  298 311  299 277  287 245  311 252  324 237  349 270  L 324 308  Z" stroke="rgba(221,146,67,.2)" stroke-width="2px" fill="rgba(221,146,67,.2)"/><path d=" M 261 52 L 253 54  222 62  218 48  211 25  311 11  313 11  317 14  L 261 52  Z" stroke="rgba(71,152,195,.2)" stroke-width="2px" fill="rgba(71,152,195,.2)"/><path d=" M 240 162 L 220 163  207 158  183 179  182 175  177 153  217 96  220 103  L 240 162  Z" stroke="rgba(137,165,73,.2)" stroke-width="2px" fill="rgba(137,165,73,.2)"/><path d=" M 311 252 L 289 217  287 245  280 226  249 240  269 163  293 191  299 181  L 311 252  Z" stroke="rgba(196,200,110,.2)" stroke-width="2px" fill="rgba(196,200,110,.2)"/><path d=" M 90 323 L 62 324  72 308  75 303  65 291  75 298  107 264  122 288  L 90 323  Z" stroke="rgba(114,252,111,.2)" stroke-width="2px" fill="rgba(114,252,111,.2)"/><path d=" M 128 165 L 129 179  113 185  108 180  89 171  119 113  132 116  148 127  L 128 165  Z" stroke="rgba(218,72,244,.2)" stroke-width="2px" fill="rgba(218,72,244,.2)"/></g>
            <g id="points"/>
          </g>
        </svg>