<svg xmlns="http://www.w3.org/2000/svg" width="360" height="336" preserveAspectRatio="xMidYMid meet">
          <iframe id="bg" x="0" y="0" style="fill: #1e2126" width="360" height="336"/>
          <g id="main">
            <g id="polygons"><path d=" M 217 211 L 189 208  193 218  185 227  158 230  158 222  148 223  152 201  151 171  159 175  170 179  166 163  175 170  190 158  208 177  L 217 211  Z" stroke="rgba(179,228,58,.2)" stroke-width="3px" fill="rgba(179,228,58,.2)"/><path d=" M 118 101 L 113 117  103 141  75 115  61 124  79 98  63 84  49 83  71 80  68 59  77 46  79 40  101 53  126 66  129 65  L 118 101  Z" stroke="rgba(155,171,142,.2)" stroke-width="3px" fill="rgba(155,171,142,.2)"/><path d=" M 186 267 L 184 280  164 285  136 286  128 288  115 266  111 255  148 223  147 245  158 222  158 230  165 237  168 240  165 244  185 242  L 186 267  Z" stroke="rgba(190,232,99,.2)" stroke-width="3px" fill="rgba(190,232,99,.2)"/><path d=" M 118 321 L 120 315  99 309  111 297  98 265  111 255  115 266  128 288  136 286  146 257  164 285  184 280  188 282  142 308  132 313  L 118 321  Z" stroke="rgba(211,91,254,.2)" stroke-width="3px" fill="rgba(211,91,254,.2)"/><path d=" M 321 80 L 311 77  292 74  289 73  297 103  239 84  268 65  226 61  267 57  247 29  261 45  290 34  295 25  289 53  301 53  L 321 80  Z" stroke="rgba(99,79,185,.2)" stroke-width="3px" fill="rgba(99,79,185,.2)"/><path d=" M 55 282 L 99 309  42 289  25 279  18 275  24 262  37 216  60 237  70 224  81 241  98 249  96 256  111 255  98 265  115 266  L 55 282  Z" stroke="rgba(111,246,105,.2)" stroke-width="3px" fill="rgba(111,246,105,.2)"/><path d=" M 195 14 L 209 28  195 28  183 22  200 50  188 43  182 37  174 70  171 47  146 61  153 44  155 37  128 42  117 31  143 12  L 195 14  Z" stroke="rgba(161,235,160,.2)" stroke-width="3px" fill="rgba(161,235,160,.2)"/><path d=" M 239 84 L 213 99  212 83  181 72  200 50  188 43  182 37  195 28  209 28  219 17  236 14  240 18  247 29  261 45  267 57  L 239 84  Z" stroke="rgba(233,162,207,.2)" stroke-width="3px" fill="rgba(233,162,207,.2)"/><path d=" M 49 206 L 66 182  57 187  36 184  33 159  45 130  42 122  61 124  75 115  79 98  113 117  103 141  109 146  95 154  135 150  L 49 206  Z" stroke="rgba(58,96,208,.2)" stroke-width="3px" fill="rgba(58,96,208,.2)"/><path d=" M 303 317 L 288 301  272 305  268 285  251 278  228 271  248 261  276 269  279 226  280 238  286 231  281 271  295 227  308 252  303 267  L 303 317  Z" stroke="rgba(186,132,250,.2)" stroke-width="3px" fill="rgba(186,132,250,.2)"/><path d=" M 235 315 L 200 306  188 282  184 280  164 285  186 267  190 267  185 242  185 227  205 259  208 245  230 257  248 261  212 271  228 271  L 235 315  Z" stroke="rgba(196,139,162,.2)" stroke-width="3px" fill="rgba(196,139,162,.2)"/><path d=" M 109 146 L 103 141  95 154  86 159  33 159  61 124  45 130  42 122  49 83  63 84  68 59  71 80  79 98  92 86  118 101  L 109 146  Z" stroke="rgba(97,153,205,.2)" stroke-width="3px" fill="rgba(97,153,205,.2)"/><path d=" M 63 84 L 49 83  22 66  10 34  22 55  21 22  32 23  48 20  33 50  45 43  62 27  76 28  79 40  77 46  68 59  L 63 84  Z" stroke="rgba(194,143,124,.2)" stroke-width="3px" fill="rgba(194,143,124,.2)"/><path d=" M 99 309 L 98 265  96 256  111 297  111 255  115 266  128 288  120 315  146 257  136 286  164 285  130 314  132 313  142 308  148 320  L 99 309  Z" stroke="rgba(136,254,78,.2)" stroke-width="3px" fill="rgba(136,254,78,.2)"/><path d=" M 195 28 L 200 50  188 43  181 72  182 37  174 70  171 47  146 61  153 44  155 37  143 12  172 10  195 14  236 14  219 17  L 195 28  Z" stroke="rgba(143,102,86,.2)" stroke-width="3px" fill="rgba(143,102,86,.2)"/><path d=" M 170 179 L 152 201  148 223  118 212  57 187  66 182  86 159  95 154  103 141  109 146  113 117  135 150  166 163  151 171  175 170  L 170 179  Z" stroke="rgba(93,185,118,.2)" stroke-width="3px" fill="rgba(93,185,118,.2)"/><path d=" M 200 306 L 164 285  136 286  146 257  165 244  165 237  168 240  185 242  186 267  190 267  208 245  205 259  208 272  212 271  228 271  L 200 306  Z" stroke="rgba(241,156,208,.2)" stroke-width="3px" fill="rgba(241,156,208,.2)"/><path d=" M 236 115 L 232 113  238 124  227 113  217 129  213 99  193 106  181 99  176 87  174 70  181 72  171 47  188 43  200 50  226 61  L 236 115  Z" stroke="rgba(60,66,196,.2)" stroke-width="3px" fill="rgba(60,66,196,.2)"/><path d=" M 136 286 L 128 288  120 315  111 297  99 309  55 282  53 281  60 237  81 241  70 224  96 256  98 249  111 255  147 245  146 257  L 136 286  Z" stroke="rgba(231,89,254,.2)" stroke-width="3px" fill="rgba(231,89,254,.2)"/><path d=" M 181 72 L 174 70  176 87  150 86  146 61  128 42  153 44  155 37  172 10  183 22  195 14  182 37  195 28  209 28  188 43  L 181 72  Z" stroke="rgba(159,113,154,.2)" stroke-width="3px" fill="rgba(159,113,154,.2)"/><path d=" M 188 43 L 171 47  181 72  174 70  153 44  146 61  129 65  126 66  128 42  117 31  143 12  172 10  195 14  183 22  195 28  L 188 43  Z" stroke="rgba(157,239,126,.2)" stroke-width="3px" fill="rgba(157,239,126,.2)"/><path d=" M 109 146 L 103 141  95 154  86 159  61 124  75 115  79 98  71 80  92 86  126 66  129 65  118 101  150 86  148 95  151 111  L 109 146  Z" stroke="rgba(87,146,153,.2)" stroke-width="3px" fill="rgba(87,146,153,.2)"/><path d=" M 338 69 L 323 112  322 103  321 80  318 76  311 77  292 74  289 73  289 53  301 53  290 34  295 25  328 51  311 24  327 21  L 338 69  Z" stroke="rgba(247,90,185,.2)" stroke-width="3px" fill="rgba(247,90,185,.2)"/><path d=" M 296 159 L 302 167  290 172  270 209  281 172  281 166  248 163  261 117  291 153  297 103  322 103  323 112  312 134  308 143  310 143  L 296 159  Z" stroke="rgba(172,225,71,.2)" stroke-width="3px" fill="rgba(172,225,71,.2)"/><path d=" M 171 47 L 174 70  146 61  150 86  129 65  126 66  101 53  77 46  79 40  76 28  117 31  143 12  172 10  155 37  182 37  L 171 47  Z" stroke="rgba(227,120,226,.2)" stroke-width="3px" fill="rgba(227,120,226,.2)"/><path d=" M 323 236 L 286 231  308 252  303 267  280 238  281 271  276 269  248 261  239 224  232 218  256 211  270 209  280 222  286 223  324 223  L 323 236  Z" stroke="rgba(187,119,251,.2)" stroke-width="3px" fill="rgba(187,119,251,.2)"/><path d=" M 321 80 L 322 103  323 112  297 103  311 77  292 74  289 73  268 65  276 65  289 53  301 53  290 34  328 51  338 59  338 69  L 321 80  Z" stroke="rgba(129,131,193,.2)" stroke-width="3px" fill="rgba(129,131,193,.2)"/><path d=" M 323 112 L 322 103  312 134  297 103  292 74  289 73  268 65  311 77  276 65  289 53  318 76  301 53  328 51  338 59  338 69  L 323 112  Z" stroke="rgba(206,174,144,.2)" stroke-width="3px" fill="rgba(206,174,144,.2)"/><path d=" M 238 124 L 236 115  232 113  227 113  217 129  213 99  193 106  212 83  200 50  226 61  261 45  267 57  268 65  276 65  289 73  L 238 124  Z" stroke="rgba(209,96,84,.2)" stroke-width="3px" fill="rgba(209,96,84,.2)"/><path d=" M 228 185 L 229 188  234 204  227 216  225 212  217 211  189 208  199 191  178 189  170 179  175 170  190 158  193 143  198 139  248 163  L 228 185  Z" stroke="rgba(223,184,162,.2)" stroke-width="3px" fill="rgba(223,184,162,.2)"/><path d=" M 292 74 L 289 73  276 65  268 65  239 84  226 61  236 14  247 29  240 18  261 45  300 14  295 25  290 34  289 53  301 53  L 292 74  Z" stroke="rgba(198,177,128,.2)" stroke-width="3px" fill="rgba(198,177,128,.2)"/><path d=" M 341 211 L 286 223  280 222  270 209  290 172  281 172  281 166  248 163  294 157  291 153  296 159  308 143  312 134  310 143  323 112  L 341 211  Z" stroke="rgba(57,61,133,.2)" stroke-width="3px" fill="rgba(57,61,133,.2)"/><path d=" M 193 143 L 190 158  175 170  170 179  159 175  166 163  181 138  179 139  151 111  176 87  181 99  193 106  213 99  227 113  217 129  L 193 143  Z" stroke="rgba(187,93,159,.2)" stroke-width="3px" fill="rgba(187,93,159,.2)"/><path d=" M 240 18 L 219 17  247 29  209 28  226 61  200 50  195 28  188 43  182 37  171 47  153 44  183 22  155 37  143 12  172 10  L 240 18  Z" stroke="rgba(84,167,66,.2)" stroke-width="3px" fill="rgba(84,167,66,.2)"/><path d=" M 81 241 L 60 237  55 282  53 281  25 279  24 262  18 275  12 218  20 178  33 159  36 184  57 187  66 182  49 206  51 212  L 81 241  Z" stroke="rgba(60,156,99,.2)" stroke-width="3px" fill="rgba(60,156,99,.2)"/><path d=" M 118 101 L 79 98  75 115  61 124  42 122  63 84  49 83  22 66  26 63  33 50  45 43  68 59  77 46  79 40  101 53  L 118 101  Z" stroke="rgba(200,151,77,.2)" stroke-width="3px" fill="rgba(200,151,77,.2)"/><path d=" M 98 249 L 96 256  98 265  81 241  53 281  60 237  24 262  12 218  37 216  51 212  49 206  36 184  57 187  66 182  118 212  L 98 249  Z" stroke="rgba(201,58,107,.2)" stroke-width="3px" fill="rgba(201,58,107,.2)"/><path d=" M 136 286 L 142 308  128 288  132 313  130 314  120 315  111 297  99 309  98 265  96 256  81 241  98 249  111 255  147 245  146 257  L 136 286  Z" stroke="rgba(73,193,245,.2)" stroke-width="3px" fill="rgba(73,193,245,.2)"/><path d=" M 79 98 L 71 80  63 84  49 83  26 63  22 55  33 50  45 43  48 20  62 27  77 18  76 28  79 40  77 46  101 53  L 79 98  Z" stroke="rgba(112,213,246,.2)" stroke-width="3px" fill="rgba(112,213,246,.2)"/><path d=" M 66 182 L 57 187  70 224  49 206  51 212  36 184  37 216  12 218  20 178  42 122  45 130  61 124  75 115  103 141  95 154  L 66 182  Z" stroke="rgba(55,126,136,.2)" stroke-width="3px" fill="rgba(55,126,136,.2)"/><path d=" M 148 320 L 142 308  132 313  130 314  128 288  136 286  146 257  147 245  165 244  168 240  186 267  190 267  208 272  184 280  188 282  L 148 320  Z" stroke="rgba(118,178,98,.2)" stroke-width="3px" fill="rgba(118,178,98,.2)"/><path d=" M 63 84 L 79 98  75 115  61 124  45 130  42 122  22 66  26 63  22 55  33 50  45 43  79 40  77 46  68 59  71 80  L 63 84  Z" stroke="rgba(78,135,78,.2)" stroke-width="3px" fill="rgba(78,135,78,.2)"/><path d=" M 348 234 L 323 236  308 252  303 267  281 271  276 269  280 238  286 231  279 226  280 222  256 211  286 223  270 209  341 211  324 223  L 348 234  Z" stroke="rgba(93,100,247,.2)" stroke-width="3px" fill="rgba(93,100,247,.2)"/><path d=" M 225 212 L 232 218  227 216  239 224  230 220  208 245  185 227  193 218  189 208  199 191  208 177  228 185  229 188  237 188  234 204  L 225 212  Z" stroke="rgba(250,84,65,.2)" stroke-width="3px" fill="rgba(250,84,65,.2)"/><path d=" M 199 191 L 189 208  178 189  170 179  152 201  159 175  151 171  135 150  166 163  179 139  181 138  185 133  193 143  198 139  190 158  L 199 191  Z" stroke="rgba(207,121,97,.2)" stroke-width="3px" fill="rgba(207,121,97,.2)"/><path d=" M 99 309 L 18 275  25 279  24 262  37 216  60 237  70 224  81 241  53 281  98 249  96 256  55 282  111 255  98 265  115 266  L 99 309  Z" stroke="rgba(197,62,108,.2)" stroke-width="3px" fill="rgba(197,62,108,.2)"/><path d=" M 303 317 L 235 315  272 305  251 278  268 285  248 261  276 269  280 279  281 271  280 238  308 252  303 267  332 291  337 290  333 297  L 303 317  Z" stroke="rgba(97,173,92,.2)" stroke-width="3px" fill="rgba(97,173,92,.2)"/><path d=" M 288 301 L 280 279  272 305  268 285  251 278  248 261  276 269  279 226  280 238  280 222  286 223  286 231  295 227  308 252  303 267  L 288 301  Z" stroke="rgba(82,214,169,.2)" stroke-width="3px" fill="rgba(82,214,169,.2)"/><path d=" M 323 236 L 308 252  303 267  280 279  281 271  276 269  280 238  239 224  256 211  279 226  270 209  280 222  286 223  295 227  324 223  L 323 236  Z" stroke="rgba(74,194,136,.2)" stroke-width="3px" fill="rgba(74,194,136,.2)"/><path d=" M 181 99 L 193 106  151 111  148 95  113 117  118 101  126 66  129 65  128 42  146 61  153 44  155 37  171 47  174 70  181 72  L 181 99  Z" stroke="rgba(144,125,63,.2)" stroke-width="3px" fill="rgba(144,125,63,.2)"/><path d=" M 70 224 L 98 249  96 256  81 241  60 237  51 212  24 262  37 216  12 218  20 178  36 184  33 159  57 187  66 182  86 159  L 70 224  Z" stroke="rgba(248,150,145,.2)" stroke-width="3px" fill="rgba(248,150,145,.2)"/><path d=" M 345 107 L 323 112  312 134  310 143  308 143  291 153  261 117  268 65  276 65  289 73  292 74  301 53  311 77  318 76  321 80  L 345 107  Z" stroke="rgba(180,121,116,.2)" stroke-width="3px" fill="rgba(180,121,116,.2)"/><path d=" M 302 167 L 290 172  296 159  281 172  294 157  281 166  291 153  308 143  261 117  297 103  321 80  312 134  322 103  323 112  345 107  L 302 167  Z" stroke="rgba(115,189,213,.2)" stroke-width="3px" fill="rgba(115,189,213,.2)"/><path d=" M 175 170 L 199 191  178 189  170 179  152 201  159 175  151 171  117 175  135 150  179 139  181 138  185 133  198 139  193 143  190 158  L 175 170  Z" stroke="rgba(172,108,94,.2)" stroke-width="3px" fill="rgba(172,108,94,.2)"/><path d=" M 289 53 L 261 45  276 65  267 57  268 65  226 61  200 50  195 28  209 28  195 14  219 17  236 14  240 18  300 14  295 25  L 289 53  Z" stroke="rgba(83,156,74,.2)" stroke-width="3px" fill="rgba(83,156,74,.2)"/><path d=" M 109 146 L 95 154  86 159  66 182  33 159  45 130  42 122  49 83  63 84  71 80  79 98  92 86  75 115  118 101  113 117  L 109 146  Z" stroke="rgba(172,113,155,.2)" stroke-width="3px" fill="rgba(172,113,155,.2)"/><path d=" M 227 113 L 236 115  217 129  198 139  193 143  185 133  181 138  179 139  151 111  181 99  176 87  174 70  181 72  212 83  213 99  L 227 113  Z" stroke="rgba(204,204,173,.2)" stroke-width="3px" fill="rgba(204,204,173,.2)"/><path d=" M 333 297 L 303 317  272 305  288 301  268 285  280 279  281 271  276 269  303 267  308 252  323 236  324 223  330 231  348 234  337 290  L 333 297  Z" stroke="rgba(64,219,110,.2)" stroke-width="3px" fill="rgba(64,219,110,.2)"/><path d=" M 228 271 L 212 271  208 272  200 306  188 282  184 280  164 285  146 257  165 244  165 237  168 240  185 242  185 227  208 245  205 259  L 228 271  Z" stroke="rgba(84,133,188,.2)" stroke-width="3px" fill="rgba(84,133,188,.2)"/><path d=" M 228 271 L 212 271  208 272  188 282  184 280  190 267  186 267  165 244  168 240  165 237  185 242  185 227  193 218  208 245  230 257  L 228 271  Z" stroke="rgba(194,94,92,.2)" stroke-width="3px" fill="rgba(194,94,92,.2)"/><path d=" M 148 223 L 158 230  165 237  147 245  146 257  115 266  111 255  96 256  98 249  81 241  70 224  117 175  151 171  159 175  152 201  L 148 223  Z" stroke="rgba(244,241,180,.2)" stroke-width="3px" fill="rgba(244,241,180,.2)"/><path d=" M 311 77 L 321 80  322 103  297 103  289 73  268 65  276 65  267 57  261 45  289 53  290 34  301 53  328 51  338 59  338 69  L 311 77  Z" stroke="rgba(107,97,145,.2)" stroke-width="3px" fill="rgba(107,97,145,.2)"/><path d=" M 118 321 L 99 309  111 297  98 265  96 256  98 249  111 255  115 266  128 288  146 257  136 286  164 285  142 308  132 313  130 314  L 118 321  Z" stroke="rgba(206,155,187,.2)" stroke-width="3px" fill="rgba(206,155,187,.2)"/><path d=" M 68 59 L 63 84  49 83  26 63  22 66  33 50  22 55  10 34  21 22  32 23  48 20  62 27  77 18  76 28  79 40  L 68 59  Z" stroke="rgba(86,96,88,.2)" stroke-width="3px" fill="rgba(86,96,88,.2)"/><path d=" M 148 320 L 132 313  130 314  120 315  118 321  99 309  98 265  96 256  98 249  111 255  115 266  146 257  128 288  136 286  164 285  L 148 320  Z" stroke="rgba(105,230,90,.2)" stroke-width="3px" fill="rgba(105,230,90,.2)"/><path d=" M 318 76 L 311 77  292 74  289 73  297 103  261 117  239 84  226 61  247 29  261 45  267 57  295 25  290 34  289 53  301 53  L 318 76  Z" stroke="rgba(77,90,81,.2)" stroke-width="3px" fill="rgba(77,90,81,.2)"/><path d=" M 290 172 L 281 172  256 211  234 204  237 188  229 188  228 185  208 177  217 129  238 124  236 115  261 117  291 153  294 157  296 159  L 290 172  Z" stroke="rgba(214,167,118,.2)" stroke-width="3px" fill="rgba(214,167,118,.2)"/><path d=" M 200 50 L 181 72  176 87  174 70  146 61  171 47  153 44  155 37  182 37  172 10  183 22  195 14  195 28  219 17  209 28  L 200 50  Z" stroke="rgba(160,250,242,.2)" stroke-width="3px" fill="rgba(160,250,242,.2)"/><path d=" M 70 224 L 60 237  51 212  49 206  37 216  12 218  36 184  20 178  33 159  45 130  61 124  86 159  95 154  66 182  117 175  L 70 224  Z" stroke="rgba(110,214,207,.2)" stroke-width="3px" fill="rgba(110,214,207,.2)"/><path d=" M 318 76 L 301 53  311 77  292 74  289 73  289 53  276 65  268 65  267 57  261 45  247 29  300 14  295 25  311 24  327 21  L 318 76  Z" stroke="rgba(233,113,174,.2)" stroke-width="3px" fill="rgba(233,113,174,.2)"/><path d=" M 225 212 L 227 216  193 218  185 242  185 227  168 240  165 237  158 230  158 222  152 201  170 179  178 189  175 170  199 191  208 177  L 225 212  Z" stroke="rgba(158,186,215,.2)" stroke-width="3px" fill="rgba(158,186,215,.2)"/><path d=" M 113 117 L 109 146  103 141  75 115  61 124  45 130  42 122  49 83  63 84  71 80  68 59  77 46  101 53  92 86  126 66  L 113 117  Z" stroke="rgba(167,89,108,.2)" stroke-width="3px" fill="rgba(167,89,108,.2)"/><path d=" M 226 61 L 200 50  181 72  188 43  174 70  171 47  182 37  153 44  155 37  183 22  172 10  195 14  219 17  236 14  240 18  L 226 61  Z" stroke="rgba(160,176,76,.2)" stroke-width="3px" fill="rgba(160,176,76,.2)"/><path d=" M 71 80 L 63 84  49 83  26 63  22 66  22 55  10 34  21 22  32 23  48 20  62 27  45 43  76 28  79 40  77 46  L 71 80  Z" stroke="rgba(166,65,94,.2)" stroke-width="3px" fill="rgba(166,65,94,.2)"/><path d=" M 71 80 L 63 84  49 83  26 63  22 66  10 34  21 22  32 23  48 20  62 27  45 43  76 28  33 50  79 40  77 46  L 71 80  Z" stroke="rgba(227,130,201,.2)" stroke-width="3px" fill="rgba(227,130,201,.2)"/><path d=" M 303 317 L 272 305  288 301  268 285  280 279  276 269  281 271  303 267  308 252  332 291  323 236  324 223  330 231  348 234  337 290  L 303 317  Z" stroke="rgba(104,98,222,.2)" stroke-width="3px" fill="rgba(104,98,222,.2)"/><path d=" M 55 282 L 53 281  42 289  25 279  18 275  12 218  36 184  37 216  49 206  51 212  70 224  60 237  81 241  98 249  96 256  L 55 282  Z" stroke="rgba(140,150,191,.2)" stroke-width="3px" fill="rgba(140,150,191,.2)"/><path d=" M 338 69 L 321 80  318 76  311 77  292 74  289 73  276 65  268 65  267 57  289 53  290 34  295 25  300 14  311 24  328 51  L 338 69  Z" stroke="rgba(210,192,180,.2)" stroke-width="3px" fill="rgba(210,192,180,.2)"/><path d=" M 280 279 L 288 301  272 305  268 285  251 278  230 257  248 261  279 226  280 222  280 238  286 223  286 231  295 227  308 252  303 267  L 280 279  Z" stroke="rgba(116,63,122,.2)" stroke-width="3px" fill="rgba(116,63,122,.2)"/><path d=" M 117 31 L 101 53  79 40  77 46  68 59  71 80  26 63  45 43  33 50  22 55  10 34  21 22  32 23  48 20  77 18  L 117 31  Z" stroke="rgba(118,232,206,.2)" stroke-width="3px" fill="rgba(118,232,206,.2)"/><path d=" M 62 27 L 101 53  79 40  77 46  68 59  49 83  45 43  33 50  26 63  22 66  22 55  10 34  32 23  21 22  77 18  L 62 27  Z" stroke="rgba(162,57,201,.2)" stroke-width="3px" fill="rgba(162,57,201,.2)"/><path d=" M 256 211 L 239 224  232 218  230 220  227 216  225 212  217 211  193 218  189 208  199 191  208 177  228 185  229 188  237 188  248 163  L 256 211  Z" stroke="rgba(56,102,75,.2)" stroke-width="3px" fill="rgba(56,102,75,.2)"/><path d=" M 174 70 L 176 87  150 86  148 95  118 101  126 66  129 65  101 53  117 31  128 42  155 37  153 44  182 37  171 47  188 43  L 174 70  Z" stroke="rgba(135,169,108,.2)" stroke-width="3px" fill="rgba(135,169,108,.2)"/><path d=" M 225 212 L 227 216  230 220  217 211  193 218  185 227  189 208  178 189  170 179  175 170  190 158  208 177  228 185  229 188  237 188  L 225 212  Z" stroke="rgba(214,55,149,.2)" stroke-width="3px" fill="rgba(214,55,149,.2)"/><path d=" M 164 285 L 146 257  136 286  115 266  111 255  118 212  148 223  152 201  158 222  158 230  185 227  165 237  168 240  185 242  165 244  L 164 285  Z" stroke="rgba(112,240,72,.2)" stroke-width="3px" fill="rgba(112,240,72,.2)"/><path d=" M 76 28 L 62 27  79 40  77 46  68 59  45 43  63 84  49 83  33 50  26 63  22 55  22 66  10 34  48 20  77 18  L 76 28  Z" stroke="rgba(137,197,162,.2)" stroke-width="3px" fill="rgba(137,197,162,.2)"/><path d=" M 79 98 L 75 115  61 124  45 130  42 122  49 83  22 66  26 63  33 50  45 43  68 59  79 40  77 46  101 53  71 80  L 79 98  Z" stroke="rgba(82,181,237,.2)" stroke-width="3px" fill="rgba(82,181,237,.2)"/><path d=" M 168 240 L 165 237  190 267  186 267  165 244  146 257  147 245  118 212  148 223  152 201  158 222  178 189  189 208  193 218  185 227  L 168 240  Z" stroke="rgba(82,174,212,.2)" stroke-width="3px" fill="rgba(82,174,212,.2)"/><path d=" M 281 271 L 280 279  268 285  251 278  228 271  212 271  208 272  205 259  230 257  208 245  230 220  232 218  239 224  279 226  280 238  L 281 271  Z" stroke="rgba(185,76,198,.2)" stroke-width="3px" fill="rgba(185,76,198,.2)"/><path d=" M 330 231 L 303 267  323 236  308 252  324 223  280 238  286 231  295 227  279 226  286 223  280 222  290 172  302 167  296 159  337 169  L 330 231  Z" stroke="rgba(137,67,138,.2)" stroke-width="3px" fill="rgba(137,67,138,.2)"/><path d=" M 345 107 L 322 103  323 112  297 103  292 74  289 73  268 65  276 65  289 53  290 34  301 53  328 51  338 59  338 69  318 76  L 345 107  Z" stroke="rgba(239,116,228,.2)" stroke-width="3px" fill="rgba(239,116,228,.2)"/><path d=" M 151 171 L 109 146  117 175  95 154  66 182  86 159  45 130  42 122  61 124  75 115  79 98  92 86  118 101  113 117  151 111  L 151 171  Z" stroke="rgba(222,61,214,.2)" stroke-width="3px" fill="rgba(222,61,214,.2)"/><path d=" M 318 76 L 321 80  311 77  292 74  289 73  276 65  268 65  267 57  261 45  247 29  290 34  295 25  300 14  311 24  328 51  L 318 76  Z" stroke="rgba(117,224,126,.2)" stroke-width="3px" fill="rgba(117,224,126,.2)"/><path d=" M 170 179 L 159 175  178 189  158 222  152 201  117 175  109 146  135 150  179 139  185 133  181 138  193 143  166 163  190 158  175 170  L 170 179  Z" stroke="rgba(221,119,96,.2)" stroke-width="3px" fill="rgba(221,119,96,.2)"/><path d=" M 181 72 L 176 87  150 86  148 95  151 111  118 101  92 86  126 66  101 53  117 31  128 42  155 37  153 44  171 47  146 61  L 181 72  Z" stroke="rgba(119,248,93,.2)" stroke-width="3px" fill="rgba(119,248,93,.2)"/><path d=" M 142 308 L 132 313  130 314  118 321  120 315  99 309  111 297  128 288  98 265  115 266  111 255  147 245  146 257  184 280  164 285  L 142 308  Z" stroke="rgba(73,119,165,.2)" stroke-width="3px" fill="rgba(73,119,165,.2)"/><path d=" M 303 267 L 281 271  280 279  276 269  248 261  239 224  256 211  270 209  279 226  280 222  286 223  286 231  295 227  324 223  323 236  L 303 267  Z" stroke="rgba(225,116,143,.2)" stroke-width="3px" fill="rgba(225,116,143,.2)"/><path d=" M 323 112 L 322 103  297 103  321 80  318 76  311 77  292 74  289 73  289 53  301 53  290 34  311 24  328 51  327 21  338 59  L 323 112  Z" stroke="rgba(138,135,109,.2)" stroke-width="3px" fill="rgba(138,135,109,.2)"/><path d=" M 178 189 L 189 208  193 218  158 222  152 201  159 175  151 171  135 150  166 163  179 139  181 138  175 170  193 143  190 158  208 177  L 178 189  Z" stroke="rgba(176,200,74,.2)" stroke-width="3px" fill="rgba(176,200,74,.2)"/><path d=" M 55 282 L 99 309  25 279  42 289  12 218  37 216  49 206  24 262  51 212  70 224  60 237  81 241  98 249  96 256  98 265  L 55 282  Z" stroke="rgba(244,97,80,.2)" stroke-width="3px" fill="rgba(244,97,80,.2)"/><path d=" M 332 291 L 303 267  308 252  281 271  276 269  280 238  286 231  279 226  295 227  280 222  286 223  324 223  341 211  330 231  348 234  L 332 291  Z" stroke="rgba(117,94,93,.2)" stroke-width="3px" fill="rgba(117,94,93,.2)"/><path d=" M 256 211 L 229 188  234 204  239 224  232 218  230 220  227 216  225 212  217 211  193 218  189 208  199 191  208 177  190 158  248 163  L 256 211  Z" stroke="rgba(126,67,192,.2)" stroke-width="3px" fill="rgba(126,67,192,.2)"/><path d=" M 183 22 L 195 28  182 37  188 43  171 47  174 70  155 37  153 44  146 61  129 65  126 66  128 42  101 53  117 31  172 10  L 183 22  Z" stroke="rgba(196,79,162,.2)" stroke-width="3px" fill="rgba(196,79,162,.2)"/><path d=" M 232 113 L 238 124  227 113  217 129  198 139  193 143  185 133  193 106  181 99  176 87  174 70  181 72  212 83  226 61  239 84  L 232 113  Z" stroke="rgba(122,116,151,.2)" stroke-width="3px" fill="rgba(122,116,151,.2)"/><path d=" M 171 47 L 153 44  128 42  146 61  129 65  126 66  101 53  68 59  77 46  79 40  62 27  76 28  77 18  143 12  172 10  L 171 47  Z" stroke="rgba(62,80,227,.2)" stroke-width="3px" fill="rgba(62,80,227,.2)"/><path d=" M 150 86 L 148 95  151 111  118 101  113 117  92 86  77 46  101 53  117 31  128 42  155 37  153 44  171 47  129 65  146 61  L 150 86  Z" stroke="rgba(200,251,237,.2)" stroke-width="3px" fill="rgba(200,251,237,.2)"/><path d=" M 286 223 L 280 222  279 226  270 209  256 211  237 188  248 163  281 166  291 153  312 134  294 157  308 143  310 143  296 159  302 167  L 286 223  Z" stroke="rgba(187,79,220,.2)" stroke-width="3px" fill="rgba(187,79,220,.2)"/><path d=" M 130 314 L 148 320  120 315  118 321  53 281  55 282  96 256  98 265  98 249  111 255  115 266  111 297  128 288  136 286  142 308  L 130 314  Z" stroke="rgba(244,110,133,.2)" stroke-width="3px" fill="rgba(244,110,133,.2)"/><path d=" M 111 255 L 136 286  115 266  128 288  111 297  98 265  96 256  55 282  53 281  60 237  81 241  70 224  118 212  148 223  147 245  L 111 255  Z" stroke="rgba(231,132,201,.2)" stroke-width="3px" fill="rgba(231,132,201,.2)"/><path d=" M 101 53 L 92 86  71 80  77 46  63 84  68 59  49 83  33 50  45 43  32 23  48 20  62 27  76 28  77 18  117 31  L 101 53  Z" stroke="rgba(91,182,156,.2)" stroke-width="3px" fill="rgba(91,182,156,.2)"/><path d=" M 302 167 L 290 172  270 209  281 172  281 166  248 163  294 157  261 117  291 153  297 103  322 103  323 112  312 134  308 143  310 143  L 302 167  Z" stroke="rgba(93,59,208,.2)" stroke-width="3px" fill="rgba(93,59,208,.2)"/><path d=" M 330 231 L 323 236  303 267  308 252  280 238  286 231  295 227  279 226  286 223  280 222  270 209  290 172  302 167  337 169  341 211  L 330 231  Z" stroke="rgba(217,133,58,.2)" stroke-width="3px" fill="rgba(217,133,58,.2)"/><path d=" M 60 237 L 51 212  49 206  37 216  57 187  36 184  20 178  33 159  45 130  61 124  86 159  103 141  95 154  109 146  117 175  L 60 237  Z" stroke="rgba(224,55,162,.2)" stroke-width="3px" fill="rgba(224,55,162,.2)"/><path d=" M 261 117 L 236 115  238 124  248 163  217 129  198 139  193 143  181 138  185 133  193 106  181 99  213 99  212 83  226 61  239 84  L 261 117  Z" stroke="rgba(225,159,253,.2)" stroke-width="3px" fill="rgba(225,159,253,.2)"/><path d=" M 70 224 L 98 249  81 241  96 256  60 237  24 262  37 216  12 218  20 178  36 184  33 159  49 206  57 187  66 182  86 159  L 70 224  Z" stroke="rgba(235,81,161,.2)" stroke-width="3px" fill="rgba(235,81,161,.2)"/><path d=" M 213 99 L 193 106  181 99  176 87  148 95  150 86  174 70  146 61  153 44  155 37  171 47  182 37  188 43  195 28  200 50  L 213 99  Z" stroke="rgba(184,71,204,.2)" stroke-width="3px" fill="rgba(184,71,204,.2)"/><path d=" M 290 34 L 240 18  261 45  247 29  267 57  268 65  226 61  200 50  188 43  209 28  182 37  195 28  219 17  183 22  195 14  L 290 34  Z" stroke="rgba(114,163,236,.2)" stroke-width="3px" fill="rgba(114,163,236,.2)"/><path d=" M 311 24 L 338 59  328 51  301 53  292 74  289 73  289 53  295 25  276 65  290 34  268 65  267 57  261 45  247 29  240 18  L 311 24  Z" stroke="rgba(89,159,140,.2)" stroke-width="3px" fill="rgba(89,159,140,.2)"/><path d=" M 230 220 L 208 245  185 242  185 227  165 244  168 240  165 237  158 230  158 222  178 189  189 208  199 191  217 211  225 212  227 216  L 230 220  Z" stroke="rgba(217,94,169,.2)" stroke-width="3px" fill="rgba(217,94,169,.2)"/><path d=" M 337 169 L 290 172  281 172  280 222  270 209  256 211  237 188  248 163  261 117  291 153  312 134  308 143  310 143  294 157  296 159  L 337 169  Z" stroke="rgba(239,250,64,.2)" stroke-width="3px" fill="rgba(239,250,64,.2)"/><path d=" M 227 113 L 193 106  217 129  198 139  193 143  185 133  181 138  179 139  151 111  148 95  150 86  176 87  174 70  181 72  212 83  L 227 113  Z" stroke="rgba(91,241,212,.2)" stroke-width="3px" fill="rgba(91,241,212,.2)"/><path d=" M 115 266 L 136 286  128 288  111 297  98 265  99 309  55 282  53 281  60 237  81 241  70 224  98 249  118 212  147 245  111 255  L 115 266  Z" stroke="rgba(124,111,222,.2)" stroke-width="3px" fill="rgba(124,111,222,.2)"/><path d=" M 268 285 L 288 301  272 305  235 315  208 272  212 271  228 271  205 259  208 245  230 257  248 261  280 238  276 269  281 271  303 267  L 268 285  Z" stroke="rgba(221,92,78,.2)" stroke-width="3px" fill="rgba(221,92,78,.2)"/><path d=" M 235 315 L 228 271  230 257  251 278  248 261  268 285  276 269  281 271  280 279  308 252  303 267  288 301  332 291  337 290  333 297  L 235 315  Z" stroke="rgba(118,253,116,.2)" stroke-width="3px" fill="rgba(118,253,116,.2)"/><path d=" M 232 218 L 230 220  227 216  208 245  185 227  193 218  189 208  217 211  199 191  208 177  228 185  229 188  237 188  234 204  256 211  L 232 218  Z" stroke="rgba(175,171,196,.2)" stroke-width="3px" fill="rgba(175,171,196,.2)"/><path d=" M 280 222 L 279 226  270 209  256 211  281 172  248 163  281 166  291 153  294 157  296 159  312 134  308 143  310 143  302 167  337 169  L 280 222  Z" stroke="rgba(214,200,212,.2)" stroke-width="3px" fill="rgba(214,200,212,.2)"/><path d=" M 338 59 L 311 77  301 53  292 74  289 73  289 53  276 65  290 34  268 65  267 57  261 45  247 29  300 14  327 21  311 24  L 338 59  Z" stroke="rgba(201,184,73,.2)" stroke-width="3px" fill="rgba(201,184,73,.2)"/><path d=" M 193 106 L 185 133  179 139  151 111  113 117  118 101  126 66  129 65  146 61  153 44  150 86  171 47  174 70  181 72  176 87  L 193 106  Z" stroke="rgba(203,112,214,.2)" stroke-width="3px" fill="rgba(203,112,214,.2)"/><path d=" M 185 242 L 205 259  168 240  190 267  186 267  165 244  146 257  147 245  148 223  158 230  158 222  152 201  189 208  193 218  185 227  L 185 242  Z" stroke="rgba(169,127,61,.2)" stroke-width="3px" fill="rgba(169,127,61,.2)"/><path d=" M 230 257 L 208 245  193 218  189 208  217 211  199 191  227 216  225 212  228 185  229 188  237 188  234 204  232 218  256 211  270 209  L 230 257  Z" stroke="rgba(96,190,253,.2)" stroke-width="3px" fill="rgba(96,190,253,.2)"/><path d=" M 251 278 L 235 315  200 306  188 282  184 280  164 285  208 272  186 267  190 267  185 242  185 227  205 259  208 245  230 257  248 261  L 251 278  Z" stroke="rgba(193,125,203,.2)" stroke-width="3px" fill="rgba(193,125,203,.2)"/><path d=" M 291 153 L 294 157  281 166  248 163  238 124  217 129  236 115  227 113  232 113  213 99  239 84  268 65  289 73  292 74  297 103  L 291 153  Z" stroke="rgba(160,193,248,.2)" stroke-width="3px" fill="rgba(160,193,248,.2)"/><path d=" M 185 227 L 168 240  165 237  158 222  158 230  147 245  148 223  118 212  117 175  151 171  159 175  166 163  175 170  170 179  178 189  L 185 227  Z" stroke="rgba(126,60,91,.2)" stroke-width="3px" fill="rgba(126,60,91,.2)"/><path d=" M 296 159 L 302 167  294 157  290 172  270 209  281 172  281 166  248 163  261 117  297 103  322 103  323 112  312 134  308 143  310 143  L 296 159  Z" stroke="rgba(137,74,214,.2)" stroke-width="3px" fill="rgba(137,74,214,.2)"/><path d=" M 175 170 L 170 179  159 175  151 171  117 175  86 159  95 154  109 146  103 141  113 117  118 101  151 111  185 133  181 138  179 139  L 175 170  Z" stroke="rgba(146,67,197,.2)" stroke-width="3px" fill="rgba(146,67,197,.2)"/><path d=" M 247 29 L 261 45  267 57  226 61  212 83  200 50  209 28  188 43  171 47  182 37  195 28  183 22  195 14  172 10  236 14  L 247 29  Z" stroke="rgba(136,228,251,.2)" stroke-width="3px" fill="rgba(136,228,251,.2)"/><path d=" M 338 69 L 322 103  321 80  318 76  311 77  292 74  289 73  276 65  301 53  289 53  290 34  295 25  300 14  311 24  327 21  L 338 69  Z" stroke="rgba(161,220,68,.2)" stroke-width="3px" fill="rgba(161,220,68,.2)"/><path d=" M 118 321 L 130 314  120 315  99 309  111 297  98 265  111 255  115 266  128 288  136 286  146 257  164 285  184 280  188 282  142 308  L 118 321  Z" stroke="rgba(162,180,55,.2)" stroke-width="3px" fill="rgba(162,180,55,.2)"/><path d=" M 205 259 L 190 267  186 267  185 242  165 244  168 240  165 237  158 230  148 223  158 222  178 189  189 208  199 191  193 218  217 211  L 205 259  Z" stroke="rgba(70,152,191,.2)" stroke-width="3px" fill="rgba(70,152,191,.2)"/><path d=" M 205 259 L 190 267  186 267  184 280  164 285  146 257  147 245  148 223  158 230  158 222  165 237  168 240  193 218  185 227  185 242  L 205 259  Z" stroke="rgba(152,228,152,.2)" stroke-width="3px" fill="rgba(152,228,152,.2)"/><path d=" M 332 291 L 303 267  280 279  281 271  276 269  280 238  279 226  286 231  280 222  286 223  295 227  324 223  323 236  330 231  348 234  L 332 291  Z" stroke="rgba(99,83,137,.2)" stroke-width="3px" fill="rgba(99,83,137,.2)"/><path d=" M 289 53 L 292 74  289 73  276 65  267 57  268 65  239 84  226 61  219 17  247 29  236 14  240 18  300 14  295 25  290 34  L 289 53  Z" stroke="rgba(190,155,245,.2)" stroke-width="3px" fill="rgba(190,155,245,.2)"/><path d=" M 57 187 L 36 184  70 224  49 206  51 212  60 237  37 216  12 218  42 122  45 130  33 159  61 124  75 115  95 154  86 159  L 57 187  Z" stroke="rgba(249,215,203,.2)" stroke-width="3px" fill="rgba(249,215,203,.2)"/><path d=" M 228 271 L 212 271  208 272  205 259  190 267  186 267  185 242  185 227  193 218  217 211  225 212  227 216  230 220  232 218  239 224  L 228 271  Z" stroke="rgba(99,171,157,.2)" stroke-width="3px" fill="rgba(99,171,157,.2)"/><path d=" M 212 83 L 193 106  181 99  176 87  148 95  150 86  129 65  146 61  153 44  155 37  171 47  182 37  195 28  188 43  200 50  L 212 83  Z" stroke="rgba(215,231,167,.2)" stroke-width="3px" fill="rgba(215,231,167,.2)"/><path d=" M 200 50 L 188 43  181 72  174 70  171 47  146 61  153 44  155 37  143 12  172 10  183 22  195 14  195 28  219 17  209 28  L 200 50  Z" stroke="rgba(185,122,64,.2)" stroke-width="3px" fill="rgba(185,122,64,.2)"/><path d=" M 337 169 L 302 167  290 172  296 159  281 172  294 157  281 166  291 153  248 163  261 117  297 103  322 103  312 134  323 112  345 107  L 337 169  Z" stroke="rgba(232,215,175,.2)" stroke-width="3px" fill="rgba(232,215,175,.2)"/><path d=" M 236 115 L 238 124  248 163  217 129  193 143  198 139  181 138  185 133  227 113  193 106  181 99  213 99  212 83  226 61  239 84  L 236 115  Z" stroke="rgba(116,248,159,.2)" stroke-width="3px" fill="rgba(116,248,159,.2)"/><path d=" M 103 141 L 95 154  86 159  45 130  36 184  33 159  20 178  22 66  26 63  49 83  63 84  71 80  92 86  79 98  75 115  L 103 141  Z" stroke="rgba(117,242,239,.2)" stroke-width="3px" fill="rgba(117,242,239,.2)"/><path d=" M 98 249 L 115 266  96 256  98 265  55 282  53 281  24 262  60 237  37 216  51 212  49 206  70 224  57 187  66 182  118 212  L 98 249  Z" stroke="rgba(136,122,126,.2)" stroke-width="3px" fill="rgba(136,122,126,.2)"/><path d=" M 63 84 L 49 83  42 122  10 34  21 22  22 55  32 23  48 20  33 50  45 43  62 27  26 63  79 40  77 46  68 59  L 63 84  Z" stroke="rgba(75,78,186,.2)" stroke-width="3px" fill="rgba(75,78,186,.2)"/><path d=" M 166 163 L 159 175  151 171  117 175  66 182  95 154  86 159  61 124  103 141  75 115  79 98  92 86  113 117  118 101  151 111  L 166 163  Z" stroke="rgba(149,67,122,.2)" stroke-width="3px" fill="rgba(149,67,122,.2)"/><path d=" M 248 261 L 230 257  208 245  230 220  217 211  227 216  225 212  232 218  228 185  229 188  234 204  237 188  256 211  270 209  280 222  L 248 261  Z" stroke="rgba(91,203,139,.2)" stroke-width="3px" fill="rgba(91,203,139,.2)"/><path d=" M 185 242 L 158 230  165 237  168 240  165 244  147 245  146 257  111 255  118 212  152 201  170 179  178 189  189 208  193 218  158 222  L 185 242  Z" stroke="rgba(110,101,140,.2)" stroke-width="3px" fill="rgba(110,101,140,.2)"/><path d=" M 270 209 L 256 211  234 204  239 224  232 218  230 220  227 216  225 212  217 211  193 218  189 208  199 191  208 177  228 185  248 163  L 270 209  Z" stroke="rgba(58,171,101,.2)" stroke-width="3px" fill="rgba(58,171,101,.2)"/><path d=" M 128 42 L 101 53  92 86  79 40  77 46  71 80  63 84  68 59  33 50  45 43  62 27  21 22  32 23  48 20  77 18  L 128 42  Z" stroke="rgba(208,153,165,.2)" stroke-width="3px" fill="rgba(208,153,165,.2)"/><path d=" M 55 282 L 99 309  42 289  18 275  12 218  24 262  37 216  49 206  51 212  70 224  60 237  81 241  98 249  96 256  98 265  L 55 282  Z" stroke="rgba(155,56,238,.2)" stroke-width="3px" fill="rgba(155,56,238,.2)"/><path d=" M 308 143 L 312 134  296 159  294 157  291 153  297 103  289 73  292 74  311 77  318 76  322 103  321 80  338 59  338 69  345 107  L 308 143  Z" stroke="rgba(165,197,158,.2)" stroke-width="3px" fill="rgba(165,197,158,.2)"/><path d=" M 272 305 L 288 301  268 285  280 279  276 269  281 271  303 267  333 297  308 252  332 291  323 236  324 223  337 290  330 231  348 234  L 272 305  Z" stroke="rgba(92,136,118,.2)" stroke-width="3px" fill="rgba(92,136,118,.2)"/><path d=" M 117 175 L 66 182  57 187  86 159  33 159  45 130  42 122  61 124  75 115  79 98  118 101  113 117  103 141  109 146  135 150  L 117 175  Z" stroke="rgba(174,148,232,.2)" stroke-width="3px" fill="rgba(174,148,232,.2)"/><path d=" M 81 241 L 60 237  53 281  42 289  24 262  25 279  18 275  20 178  33 159  36 184  57 187  66 182  49 206  51 212  37 216  L 81 241  Z" stroke="rgba(225,112,221,.2)" stroke-width="3px" fill="rgba(225,112,221,.2)"/><path d=" M 95 154 L 86 159  66 182  57 187  36 184  33 159  20 178  42 122  49 83  63 84  71 80  79 98  92 86  75 115  61 124  L 95 154  Z" stroke="rgba(233,244,101,.2)" stroke-width="3px" fill="rgba(233,244,101,.2)"/><path d=" M 286 223 L 280 222  286 231  279 226  280 238  239 224  230 220  232 218  227 216  256 211  234 204  237 188  281 166  281 172  290 172  L 286 223  Z" stroke="rgba(82,251,251,.2)" stroke-width="3px" fill="rgba(82,251,251,.2)"/><path d=" M 248 163 L 238 124  217 129  193 143  198 139  185 133  193 106  227 113  181 99  232 113  213 99  212 83  226 61  239 84  268 65  L 248 163  Z" stroke="rgba(186,66,226,.2)" stroke-width="3px" fill="rgba(186,66,226,.2)"/><path d=" M 310 143 L 302 167  308 143  290 172  296 159  294 157  281 172  281 166  291 153  261 117  297 103  321 80  322 103  323 112  345 107  L 310 143  Z" stroke="rgba(167,234,225,.2)" stroke-width="3px" fill="rgba(167,234,225,.2)"/><path d=" M 62 27 L 79 40  77 46  68 59  45 43  63 84  49 83  33 50  26 63  22 66  22 55  10 34  21 22  48 20  77 18  L 62 27  Z" stroke="rgba(199,129,105,.2)" stroke-width="3px" fill="rgba(199,129,105,.2)"/><path d=" M 193 143 L 208 177  190 158  175 170  170 179  166 163  159 175  151 171  135 150  151 111  181 99  193 106  185 133  181 138  217 129  L 193 143  Z" stroke="rgba(77,102,217,.2)" stroke-width="3px" fill="rgba(77,102,217,.2)"/><path d=" M 181 72 L 174 70  150 86  146 61  129 65  126 66  128 42  117 31  143 12  155 37  172 10  183 22  195 28  182 37  188 43  L 181 72  Z" stroke="rgba(93,204,62,.2)" stroke-width="3px" fill="rgba(93,204,62,.2)"/><path d=" M 148 320 L 142 308  164 285  184 280  188 282  186 267  190 267  185 242  205 259  208 245  208 272  212 271  230 257  228 271  251 278  L 148 320  Z" stroke="rgba(236,61,150,.2)" stroke-width="3px" fill="rgba(236,61,150,.2)"/><path d=" M 148 320 L 132 313  130 314  120 315  118 321  99 309  111 297  98 265  96 256  115 266  111 255  147 245  146 257  136 286  164 285  L 148 320  Z" stroke="rgba(65,163,70,.2)" stroke-width="3px" fill="rgba(65,163,70,.2)"/><path d=" M 70 224 L 81 241  49 206  51 212  60 237  37 216  12 218  20 178  33 159  42 122  45 130  61 124  95 154  86 159  66 182  L 70 224  Z" stroke="rgba(78,183,93,.2)" stroke-width="3px" fill="rgba(78,183,93,.2)"/><path d=" M 328 51 L 338 69  318 76  311 77  301 53  292 74  289 73  289 53  276 65  267 57  290 34  261 45  295 25  300 14  327 21  L 328 51  Z" stroke="rgba(173,214,244,.2)" stroke-width="3px" fill="rgba(173,214,244,.2)"/><path d=" M 185 242 L 168 240  165 237  165 244  158 230  146 257  147 245  148 223  118 212  152 201  159 175  170 179  178 189  189 208  193 218  L 185 242  Z" stroke="rgba(198,201,88,.2)" stroke-width="3px" fill="rgba(198,201,88,.2)"/><path d=" M 332 291 L 333 297  288 301  280 279  268 285  281 271  276 269  280 238  279 226  286 231  286 223  295 227  308 252  323 236  330 231  L 332 291  Z" stroke="rgba(221,106,66,.2)" stroke-width="3px" fill="rgba(221,106,66,.2)"/><path d=" M 190 158 L 175 170  193 143  166 163  179 139  181 138  185 133  181 99  193 106  213 99  227 113  232 113  236 115  217 129  238 124  L 190 158  Z" stroke="rgba(235,145,131,.2)" stroke-width="3px" fill="rgba(235,145,131,.2)"/><path d=" M 261 45 L 226 61  200 50  181 72  174 70  188 43  171 47  182 37  195 28  183 22  172 10  195 14  219 17  236 14  240 18  L 261 45  Z" stroke="rgba(243,145,132,.2)" stroke-width="3px" fill="rgba(243,145,132,.2)"/><path d=" M 333 297 L 303 317  272 305  288 301  332 291  268 285  280 279  281 271  276 269  303 267  308 252  323 236  324 223  330 231  348 234  L 333 297  Z" stroke="rgba(233,172,62,.2)" stroke-width="3px" fill="rgba(233,172,62,.2)"/><path d=" M 310 143 L 308 143  312 134  323 112  297 103  322 103  289 73  292 74  311 77  321 80  318 76  301 53  328 51  338 69  338 59  L 310 143  Z" stroke="rgba(154,158,234,.2)" stroke-width="3px" fill="rgba(154,158,234,.2)"/><path d=" M 230 257 L 208 245  230 220  193 218  189 208  227 216  217 211  199 191  225 212  228 185  229 188  234 204  237 188  256 211  270 209  L 230 257  Z" stroke="rgba(201,205,56,.2)" stroke-width="3px" fill="rgba(201,205,56,.2)"/><path d=" M 212 83 L 176 87  181 72  174 70  171 47  153 44  155 37  188 43  182 37  172 10  183 22  195 28  195 14  209 28  219 17  L 212 83  Z" stroke="rgba(216,101,99,.2)" stroke-width="3px" fill="rgba(216,101,99,.2)"/><path d=" M 118 321 L 130 314  132 313  120 315  99 309  111 297  128 288  115 266  136 286  146 257  164 285  186 267  184 280  188 282  200 306  L 118 321  Z" stroke="rgba(58,68,186,.2)" stroke-width="3px" fill="rgba(58,68,186,.2)"/><path d=" M 98 249 L 111 255  96 256  98 265  55 282  53 281  42 289  25 279  24 262  12 218  37 216  51 212  49 206  57 187  70 224  L 98 249  Z" stroke="rgba(60,228,163,.2)" stroke-width="3px" fill="rgba(60,228,163,.2)"/><path d=" M 120 315 L 99 309  130 314  132 313  111 297  128 288  115 266  142 308  136 286  146 257  164 285  186 267  184 280  188 282  200 306  L 120 315  Z" stroke="rgba(117,218,166,.2)" stroke-width="3px" fill="rgba(117,218,166,.2)"/><path d=" M 212 271 L 208 272  200 306  188 282  184 280  164 285  186 267  165 244  165 237  168 240  185 242  185 227  208 245  205 259  230 257  L 212 271  Z" stroke="rgba(206,174,236,.2)" stroke-width="3px" fill="rgba(206,174,236,.2)"/><path d=" M 129 65 L 126 66  118 101  92 86  79 98  71 80  63 84  68 59  77 46  79 40  62 27  76 28  77 18  117 31  128 42  L 129 65  Z" stroke="rgba(195,105,199,.2)" stroke-width="3px" fill="rgba(195,105,199,.2)"/><path d=" M 92 86 L 71 80  63 84  68 59  49 83  33 50  45 43  32 23  48 20  62 27  76 28  77 18  79 40  117 31  128 42  L 92 86  Z" stroke="rgba(118,205,70,.2)" stroke-width="3px" fill="rgba(118,205,70,.2)"/><path d=" M 190 158 L 193 143  198 139  179 139  181 138  185 133  181 99  193 106  213 99  212 83  227 113  232 113  236 115  261 117  238 124  L 190 158  Z" stroke="rgba(228,199,205,.2)" stroke-width="3px" fill="rgba(228,199,205,.2)"/><path d=" M 268 285 L 235 315  200 306  188 282  184 280  208 272  212 271  186 267  190 267  205 259  208 245  230 257  239 224  248 261  276 269  L 268 285  Z" stroke="rgba(229,94,251,.2)" stroke-width="3px" fill="rgba(229,94,251,.2)"/><path d=" M 128 42 L 101 53  79 40  77 46  71 80  76 28  68 59  45 43  33 50  22 55  62 27  32 23  21 22  48 20  143 12  L 128 42  Z" stroke="rgba(211,199,227,.2)" stroke-width="3px" fill="rgba(211,199,227,.2)"/><path d=" M 341 211 L 330 231  324 223  290 172  281 172  281 166  302 167  296 159  294 157  291 153  308 143  310 143  312 134  323 112  345 107  L 341 211  Z" stroke="rgba(55,177,59,.2)" stroke-width="3px" fill="rgba(55,177,59,.2)"/><path d=" M 280 222 L 279 226  286 231  280 238  239 224  230 220  232 218  227 216  225 212  217 211  234 204  229 188  228 185  237 188  270 209  L 280 222  Z" stroke="rgba(243,216,224,.2)" stroke-width="3px" fill="rgba(243,216,224,.2)"/><path d=" M 181 138 L 179 139  135 150  113 117  118 101  126 66  129 65  148 95  146 61  150 86  174 70  181 72  176 87  181 99  193 106  L 181 138  Z" stroke="rgba(252,192,168,.2)" stroke-width="3px" fill="rgba(252,192,168,.2)"/><path d=" M 193 143 L 208 177  190 158  175 170  170 179  159 175  166 163  151 171  179 139  135 150  151 111  181 99  193 106  185 133  217 129  L 193 143  Z" stroke="rgba(85,181,215,.2)" stroke-width="3px" fill="rgba(85,181,215,.2)"/><path d=" M 333 297 L 332 291  303 267  308 252  323 236  280 238  286 231  279 226  295 227  330 231  280 222  286 223  324 223  341 211  337 169  L 333 297  Z" stroke="rgba(126,141,72,.2)" stroke-width="3px" fill="rgba(126,141,72,.2)"/><path d=" M 199 191 L 190 158  170 179  175 170  159 175  166 163  179 139  181 138  185 133  181 99  193 106  213 99  227 113  198 139  217 129  L 199 191  Z" stroke="rgba(152,217,238,.2)" stroke-width="3px" fill="rgba(152,217,238,.2)"/><path d=" M 208 245 L 205 259  190 267  186 267  165 244  146 257  147 245  148 223  158 230  165 237  158 222  152 201  189 208  193 218  185 227  L 208 245  Z" stroke="rgba(229,186,236,.2)" stroke-width="3px" fill="rgba(229,186,236,.2)"/><path d=" M 205 259 L 212 271  208 272  190 267  186 267  184 280  165 244  147 245  168 240  165 237  158 230  158 222  185 227  189 208  193 218  L 205 259  Z" stroke="rgba(186,191,56,.2)" stroke-width="3px" fill="rgba(186,191,56,.2)"/><path d=" M 164 285 L 184 280  146 257  165 244  165 237  168 240  186 267  185 242  190 267  208 245  205 259  230 257  208 272  212 271  228 271  L 164 285  Z" stroke="rgba(228,156,189,.2)" stroke-width="3px" fill="rgba(228,156,189,.2)"/><path d=" M 239 224 L 230 220  230 257  208 245  193 218  189 208  217 211  199 191  225 212  208 177  228 185  229 188  237 188  234 204  256 211  L 239 224  Z" stroke="rgba(230,183,248,.2)" stroke-width="3px" fill="rgba(230,183,248,.2)"/><path d=" M 311 77 L 321 80  292 74  322 103  297 103  268 65  276 65  267 57  261 45  289 53  290 34  295 25  301 53  328 51  338 69  L 311 77  Z" stroke="rgba(83,109,78,.2)" stroke-width="3px" fill="rgba(83,109,78,.2)"/><path d=" M 184 280 L 188 282  208 272  205 259  212 271  228 271  230 257  248 261  251 278  276 269  281 271  268 285  280 279  272 305  288 301  L 184 280  Z" stroke="rgba(200,55,194,.2)" stroke-width="3px" fill="rgba(200,55,194,.2)"/><path d=" M 303 317 L 272 305  235 315  212 271  228 271  251 278  230 257  248 261  280 238  286 231  276 269  281 271  308 252  303 267  280 279  L 303 317  Z" stroke="rgba(135,71,202,.2)" stroke-width="3px" fill="rgba(135,71,202,.2)"/><path d=" M 77 46 L 45 43  68 59  33 50  63 84  49 83  22 55  26 63  22 66  21 22  32 23  48 20  77 18  62 27  76 28  L 77 46  Z" stroke="rgba(243,158,230,.2)" stroke-width="3px" fill="rgba(243,158,230,.2)"/><path d=" M 338 69 L 328 51  321 80  318 76  311 77  292 74  289 73  301 53  276 65  289 53  267 57  290 34  311 24  295 25  300 14  L 338 69  Z" stroke="rgba(106,162,165,.2)" stroke-width="3px" fill="rgba(106,162,165,.2)"/><path d=" M 330 231 L 323 236  295 227  308 252  303 267  286 231  281 271  276 269  280 238  279 226  239 224  280 222  256 211  270 209  290 172  L 330 231  Z" stroke="rgba(197,110,157,.2)" stroke-width="3px" fill="rgba(197,110,157,.2)"/><path d=" M 286 223 L 323 236  295 227  308 252  286 231  281 271  280 238  276 269  279 226  239 224  232 218  234 204  256 211  270 209  281 172  L 286 223  Z" stroke="rgba(173,141,244,.2)" stroke-width="3px" fill="rgba(173,141,244,.2)"/><path d=" M 337 290 L 332 291  303 267  308 252  281 271  323 236  280 238  286 231  279 226  295 227  280 222  286 223  324 223  337 169  341 211  L 337 290  Z" stroke="rgba(197,166,187,.2)" stroke-width="3px" fill="rgba(197,166,187,.2)"/><path d=" M 256 211 L 239 224  232 218  234 204  230 220  227 216  225 212  217 211  199 191  229 188  228 185  208 177  248 163  281 166  281 172  L 256 211  Z" stroke="rgba(122,242,184,.2)" stroke-width="3px" fill="rgba(122,242,184,.2)"/><path d=" M 135 150 L 109 146  113 117  103 141  75 115  79 98  63 84  71 80  92 86  101 53  126 66  129 65  146 61  150 86  148 95  L 135 150  Z" stroke="rgba(169,223,253,.2)" stroke-width="3px" fill="rgba(169,223,253,.2)"/><path d=" M 136 286 L 128 288  115 266  111 297  98 265  96 256  60 237  98 249  81 241  70 224  118 212  148 223  158 230  147 245  165 244  L 136 286  Z" stroke="rgba(102,178,217,.2)" stroke-width="3px" fill="rgba(102,178,217,.2)"/><path d=" M 272 305 L 251 278  268 285  248 261  288 301  280 279  276 269  281 271  280 238  303 267  308 252  332 291  337 290  333 297  339 303  L 272 305  Z" stroke="rgba(77,168,59,.2)" stroke-width="3px" fill="rgba(77,168,59,.2)"/><path d=" M 323 112 L 310 143  312 134  308 143  291 153  297 103  289 73  292 74  311 77  301 53  318 76  321 80  328 51  338 59  338 69  L 323 112  Z" stroke="rgba(165,142,66,.2)" stroke-width="3px" fill="rgba(165,142,66,.2)"/><path d=" M 268 285 L 251 278  228 271  212 271  208 272  190 267  186 267  205 259  185 242  208 245  225 212  227 216  230 220  232 218  239 224  L 268 285  Z" stroke="rgba(152,219,186,.2)" stroke-width="3px" fill="rgba(152,219,186,.2)"/><path d=" M 248 163 L 190 158  193 143  198 139  181 138  217 129  185 133  193 106  213 99  227 113  212 83  232 113  236 115  239 84  261 117  L 248 163  Z" stroke="rgba(123,96,94,.2)" stroke-width="3px" fill="rgba(123,96,94,.2)"/><path d=" M 99 309 L 42 289  25 279  18 275  53 281  24 262  37 216  60 237  70 224  81 241  98 249  96 256  111 255  98 265  115 266  L 99 309  Z" stroke="rgba(185,65,120,.2)" stroke-width="3px" fill="rgba(185,65,120,.2)"/><path d=" M 170 179 L 199 191  178 189  189 208  158 222  152 201  117 175  151 171  135 150  179 139  166 163  181 138  193 143  190 158  175 170  L 170 179  Z" stroke="rgba(112,126,95,.2)" stroke-width="3px" fill="rgba(112,126,95,.2)"/><path d=" M 193 106 L 181 99  185 133  151 111  148 95  150 86  146 61  153 44  171 47  174 70  182 37  188 43  181 72  200 50  212 83  L 193 106  Z" stroke="rgba(142,249,146,.2)" stroke-width="3px" fill="rgba(142,249,146,.2)"/><path d=" M 229 188 L 208 177  199 191  178 189  170 179  175 170  159 175  151 171  166 163  179 139  181 138  185 133  193 143  198 139  217 129  L 229 188  Z" stroke="rgba(154,81,87,.2)" stroke-width="3px" fill="rgba(154,81,87,.2)"/><path d=" M 290 34 L 261 45  276 65  267 57  247 29  268 65  226 61  200 50  188 43  209 28  195 28  183 22  219 17  195 14  236 14  L 290 34  Z" stroke="rgba(160,254,137,.2)" stroke-width="3px" fill="rgba(160,254,137,.2)"/></g>
            <g id="points"/>
          </g>
        </svg>